<svg width="14" height="14" viewBox="0 0 14 14" fill="none" xmlns="http://www.w3.org/2000/svg">
<path fill-rule="evenodd" clip-rule="evenodd" d="M13.3353 6.66767C13.3353 2.98694 10.3484 0 6.66767 0C2.98694 0 0 2.98694 0 6.66767C0 10.3488 2.98674 13.3353 6.66767 13.3353C10.3486 13.3353 13.3353 10.3488 13.3353 6.66767ZM1.2123 6.66767C1.2123 3.65648 3.65648 1.2123 6.66767 1.2123C9.67886 1.2123 12.123 3.65648 12.123 6.66767C12.123 9.67925 9.67908 12.123 6.66767 12.123C3.65626 12.123 1.2123 9.67925 1.2123 6.66767Z" fill="#EB5757"/>
<path fill-rule="evenodd" clip-rule="evenodd" d="M9.62006 4.38277C9.77256 4.53527 9.77256 4.78251 9.62006 4.93501L4.9342 9.62087C4.7817 9.77337 4.53446 9.77337 4.38196 9.62087C4.22947 9.46838 4.22947 9.22113 4.38196 9.06864L9.06783 4.38277C9.22032 4.23028 9.46757 4.23028 9.62006 4.38277Z" fill="#EB5757"/>
<path fill-rule="evenodd" clip-rule="evenodd" d="M4.38196 4.38277C4.53446 4.23028 4.7817 4.23028 4.9342 4.38277L9.62006 9.06864C9.77256 9.22113 9.77256 9.46838 9.62006 9.62087C9.46757 9.77337 9.22032 9.77337 9.06783 9.62087L4.38196 4.93501C4.22947 4.78251 4.22947 4.53527 4.38196 4.38277Z" fill="#EB5757"/>
</svg>
