<svg width="14" height="14" viewBox="0 0 14 14" fill="none" xmlns="http://www.w3.org/2000/svg">
<path fill-rule="evenodd" clip-rule="evenodd" d="M6.99999 0.331726C10.6806 0.331726 13.6675 3.31858 13.6675 6.99919C13.6675 10.6802 10.6808 13.6667 6.99999 13.6667C3.31917 13.6667 0.33252 10.6802 0.33252 6.99919C0.33252 3.31858 3.31937 0.331726 6.99999 0.331726ZM6.99999 1.54399C3.98889 1.54399 1.54479 3.9881 1.54479 6.99919C1.54479 10.0107 3.98867 12.4544 6.99999 12.4544C10.0113 12.4544 12.4552 10.0107 12.4552 6.99919C12.4552 3.9881 10.0111 1.54399 6.99999 1.54399ZM3.94501 6.71922C4.18172 6.48251 4.5655 6.48251 4.80221 6.71922L6.24279 8.1598L9.26454 4.46673C9.47652 4.20765 9.8584 4.16947 10.1175 4.38146C10.3766 4.59345 10.4147 4.97533 10.2028 5.23441L6.75689 9.44582C6.52981 9.72336 6.11274 9.74415 5.85918 9.49059L3.94501 7.57642C3.7083 7.33971 3.7083 6.95593 3.94501 6.71922Z" fill="#008F33"/>
</svg>
